# xmcd
#
# Track frame offsets:
# 150
# 16911
# 31962
# 47622
# 62794
# 77601
# 94089
# 110458
# 125916
# 143180
# 156807
# 170612
# 189990
# 205157
#
# Disc length: 2971 seconds
#
#
# Revision: 7
# Processed by: cddbd v1.5.1PL2 Copyright (c) Steve Scherf et al.
# Submitted via: FreeRIP 2.945 
#
DISCID=b90b990e
DTITLE=Guilherme and Santiago - 10 Anos Vol 08 [Acústico Ao Vivo]
DYEAR=2005
DGENRE=Other
TTITLE0=Alô, Meu Povo
TTITLE1=Magia E Mistério
TTITLE2=Pra Que Chorar
TTITLE3=Essa Paixão Me Machucou
TTITLE4=Coração
TTITLE5=Valeu Esperar
TTITLE6=Eu Gosto De Mulher, MEU AMIGO DE PINHA
TTITLE7=Vem Brincar De Amar
TTITLE8=Só Falta Você
TTITLE9=Cada Vem Mais
TTITLE10=Preciso Desse Amor
TTITLE11=Paut-Pourri: Blusa Vermelha # Último Adeus
TTITLE12=Do Outro Lado Da Cidade (Part. Esp. Zezé Di Camargo and Luciano)
TTITLE13=E Pra Sempre Te Amar (Trilha Sonora Da Novela Essas Mulheres)
EXTD=by Flávio Abrahão Biasuz YEAR: 2005
EXTT0=
EXTT1=
EXTT2=
EXTT3=
EXTT4=
EXTT5=
EXTT6=
EXTT7=
EXTT8=
EXTT9=
EXTT10=
EXTT11=
EXTT12=
EXTT13=
PLAYORDER=
